<svg id="Grupo_1180602" data-name="Grupo 1180602" xmlns="http://www.w3.org/2000/svg" xmlns:xlink="http://www.w3.org/1999/xlink" width="84" height="84" viewBox="0 0 84 84">
  <defs>
    <clipPath id="clip-path">
      <rect id="Rectángulo_467624" data-name="Rectángulo 467624" width="69.021" height="58.688" fill="#12263f"/>
    </clipPath>
  </defs>
  <g id="Grupo_1180019" data-name="Grupo 1180019">
    <g id="Grupo_1180023" data-name="Grupo 1180023">
      <rect id="Rectángulo_456333" data-name="Rectángulo 456333" width="84" height="84" rx="10" fill="#68c6ea"/>
      <g id="Grupo_1212727" data-name="Grupo 1212727" transform="translate(7.489 10.563)">
        <g id="Grupo_1212726" data-name="Grupo 1212726" clip-path="url(#clip-path)">
          <path id="Trazado_1285153" data-name="Trazado 1285153" d="M59.747,0c1.1.786.785,2.194,1.94,2.55,1.279.394,2.321-.925,3.061-.321a11.7,11.7,0,0,1,2.1,2.139c.543.748-.809,1.926-.323,3.069.495,1.166,2.212,1.052,2.342,1.77a9.561,9.561,0,0,1,0,3.39c-.13.714-1.866.631-2.349,1.774-.575,1.359,1.6,2.6-.574,4.017l0,28.688,2.156.083a.91.91,0,0,1,.878.911L68.97,52.36a6.408,6.408,0,0,1-6.288,6.326l-56.386,0A6.409,6.409,0,0,1,.008,52.361L0,48.069a.911.911,0,0,1,.88-.915l2.187-.034.057-32.634c.006-3.306,2.894-5.376,6.013-5.373l38.2.034a15.11,15.11,0,0,1,1.923-1.062c1.55-.892-.433-3.1.224-3.754L51.628,2.21c.592-.586,3.115,1.48,3.82-.369A3.01,3.01,0,0,1,56.787,0Zm.975,17.548c2.407-1.189,2.836.752,3.863-.518a1.069,1.069,0,0,0-.033-1.227c-.491-.772-.087-1.493.207-2.222.934-2.317,2.4-1.3,2.3-2.792-.087-1.219-1.373-.317-2.3-2.563-.3-.73-.695-1.451-.208-2.223a1.091,1.091,0,0,0,.035-1.232c-.993-1.268-1.464.654-3.866-.512-.663-.322-1.32-.533-1.523-1.386A1.008,1.008,0,0,0,58.191,2c-1.472-.059-.389,1.389-2.559,2.245-.828.327-1.62.736-2.487.224a1.017,1.017,0,0,0-1.416.2A.975.975,0,0,0,51.715,5.9c.524.806.171,1.486-.134,2.27-.33.848-.622,1.548-1.613,1.757a.913.913,0,0,0-.766,1.083c.063,1.219,1.454.235,2.38,2.623.3.778.657,1.47.133,2.265a.987.987,0,0,0,.124,1.366c.9.878,1.221-.774,3.641.24,2.339.981,1.328,2.414,2.715,2.345,1.229-.061.319-1.214,2.526-2.3M7.355,14.641c0-.89.96-1.217,1.581-1.217L48.343,13.4c-.959-.631-1.153-.991-1.015-2.3l-38.865.033a3.547,3.547,0,0,0-3.412,3.344L5.007,47.125l2.317-.016ZM41.473,34.672l3.722-1.1,3.612,3.521c.726.707-.872,2.777-.869,4.059a8.636,8.636,0,0,0,.933,2.526c2.406,1.221,3.95,1.063,3.612,3.468l7.258-.042L59.73,21.822l-3.122-.146c-.811-.038-.822-1.986-1.925-2.4-1.2-.445-2.379.857-3.054.317a11.494,11.494,0,0,1-2.126-2.13c-.4-.545.031-1.364.34-2.081L9.3,15.376l0,31.77,7.284-.042c-.088-.794-.1-1.447.35-1.875l3.108-1.635a2.992,2.992,0,0,0,1.032-2.4l-1.111-3.809L23.8,33.565l3.766,1.122c.846.041,1.682-.653,2.442-.874l1.647-3.287c.264-.527,1.259-.337,1.851-.33l.026-6.759a3.139,3.139,0,1,1,1.918,0l.027,6.747c.52.04,1.527-.229,1.782.228l1.893,3.407c.567.285,1.644,1.053,2.324.851M64.011,47.033l0-27.265a4.52,4.52,0,0,0-2.285-.633l-.027,27.992a9.373,9.373,0,0,0,2.317-.093M33.831,19.476a1.21,1.21,0,0,0-.238,1.788,1.238,1.238,0,0,0,1.552.2,1.216,1.216,0,0,0,.341-1.653,1.179,1.179,0,0,0-1.655-.332m8.5,27.665,8.132-.012c.107-.1.112-.466-.022-.537l-3.067-1.613a11.686,11.686,0,0,1-1.482-3.794c-.114-1.163.9-2.2.985-3.291l-2.157-2.127-3.3,1.062a13.924,13.924,0,0,1-3.787-1.656c-.821-.719-.945-2.082-1.528-2.984l-3.111-.032L31.4,35.2c-1.067.851-2.584,1.087-3.8,1.7l-3.341-1.157-2.162,2.2c1.508,3.22,1.236,3.9-.484,7.056l-3.035,1.6a.536.536,0,0,0-.036.532l8.162,0a7.875,7.875,0,0,1,15.624.006m-1.982-.026a5.922,5.922,0,0,0-11.672.03ZM42.464,49.1l-.056,2.055a1.077,1.077,0,0,1-1.031,1.132L27.605,52.3a.917.917,0,0,1-.941-.881l-.1-2.316-24.576,0L2.01,52.75A4.556,4.556,0,0,0,6.7,56.745h55.58a4.549,4.549,0,0,0,4.689-4l.016-3.646ZM40.4,50.315a1.471,1.471,0,0,0-.116-1.217L28.7,49.1a1.584,1.584,0,0,0,.022,1.214Z" transform="translate(0 -0.001)" fill="#12263f"/>
          <path id="Trazado_1285154" data-name="Trazado 1285154" d="M92.609,104.7c.237,2.27.287,4.537-1.035,4.225a1.056,1.056,0,0,1-.849-1.007l.024-2.067-3.758-2.209a3.131,3.131,0,1,1-.9-5.257,3.341,3.341,0,0,1,1.943,3.624c1.65.89,3.086,1.723,4.578,2.691m-8.063-4.512a1.134,1.134,0,0,0-.641,1.7,1.173,1.173,0,0,0,1.419.533,1.2,1.2,0,0,0,.7-1.479,1.165,1.165,0,0,0-1.477-.758" transform="translate(-63.578 -76.312)" fill="#12263f"/>
          <path id="Trazado_1285155" data-name="Trazado 1285155" d="M180.937,105.741c-.222,1.526.342,2.661-.751,3.138-1.338.585-1.507-1.736-1.179-4.184l4.608-2.76a3.2,3.2,0,0,1,1.9-3.552,3.146,3.146,0,1,1-.9,5.26ZM186.3,100.2a1.175,1.175,0,0,0,.779,2.217,1.217,1.217,0,0,0,.732-1.51,1.148,1.148,0,0,0-1.511-.707" transform="translate(-139.054 -76.308)" fill="#12263f"/>
          <path id="Trazado_1285156" data-name="Trazado 1285156" d="M242.483,26.853a4.97,4.97,0,1,1-3.351,6.227,4.977,4.977,0,0,1,3.351-6.227m1.094,1.769a3.025,3.025,0,0,0-2.676,3.5,3.084,3.084,0,0,0,3.347,2.522,3.039,3.039,0,0,0,2.65-3.309,2.965,2.965,0,0,0-3.32-2.711" transform="translate(-185.737 -20.715)" fill="#12263f"/>
        </g>
      </g>
    </g>
  </g>
</svg>
